<?xml version="1.0" encoding="UTF-8"?>
<svg version="1.1" xmlns="http://www.w3.org/2000/svg" width="1920" height="480">
<path d="M0 0 C8 0 8 0 10.29296875 1.84375 C10.91816406 2.7203125 11.54335937 3.596875 12.1875 4.5 C12.93644531 5.50417969 13.68539063 6.50835937 14.45703125 7.54296875 C14.86002441 8.09774902 15.26301758 8.6525293 15.67822266 9.22412109 C18.12659702 12.51364366 20.76957101 15.6471039 23.375 18.8125 C27.92399854 24.39748735 32.40231587 30.03303888 36.83544922 35.71020508 C40.3373184 40.18397259 43.90792696 44.59844571 47.5 49 C51.54975959 53.96238148 55.55785296 58.95168967 59.5 64 C65.55913545 71.75436897 71.7773288 79.37668065 78 87 C84.68097011 95.18477581 91.3336976 103.3840373 97.83642578 111.71142578 C101.33793972 116.18480915 104.90825692 120.59885003 108.5 125 C112.54975959 129.96238148 116.55785296 134.95168967 120.5 140 C126.55913545 147.75436897 132.7773288 155.37668065 139 163 C145.68097011 171.18477581 152.3336976 179.3840373 158.83642578 187.71142578 C162.87581692 192.87197788 167.01158649 197.95114292 171.15527344 203.02807617 C174.73384318 207.42039266 178.26132067 211.84851744 181.75 216.3125 C185.62693327 221.27149653 189.56423009 226.17297445 193.5625 231.03515625 C200.84899504 239.89805647 208.09172501 248.79589421 215.1875 257.8125 C215.64495605 258.39298096 216.10241211 258.97346191 216.57373047 259.5715332 C218.4775224 262.00077171 220.28681887 264.43022831 222 267 C222.495 134.835 222.495 134.835 223 0 C225.97 0 228.94 0 232 0 C232 93.06 232 186.12 232 282 C222 282 222 282 219.44140625 280.3046875 C218.82136719 279.50289063 218.20132812 278.70109375 217.5625 277.875 C216.82644531 276.9571875 216.09039063 276.039375 215.33203125 275.09375 C214.56246094 274.0728125 213.79289062 273.051875 213 272 C212.15284723 270.92462791 211.30249179 269.85177233 210.44921875 268.78125 C208.6000073 266.45374169 206.76764665 264.11422992 204.9453125 261.765625 C201.89094021 257.84238958 198.76574591 253.97925268 195.625 250.125 C195.08278809 249.45919922 194.54057617 248.79339844 193.98193359 248.10742188 C192.32220725 246.07086365 190.66131769 244.03526024 189 242 C182.31902989 233.81522419 175.6663024 225.6159627 169.16357422 217.28857422 C165.12065899 212.12351988 160.98138149 207.03982866 156.83374023 201.95874023 C153.36106518 197.69689091 149.94173694 193.39868899 146.5625 189.0625 C142.46062077 183.8024431 138.25421962 178.63749637 134 173.5 C129.28702568 167.8085006 124.65547156 162.06675554 120.11328125 156.23828125 C116.63146066 151.77910752 113.07754476 147.38263657 109.5 143 C105.36559793 137.93458009 101.27624809 132.83933528 97.25 127.6875 C93.37306673 122.72850347 89.43576991 117.82702555 85.4375 112.96484375 C77.91595501 103.81604143 70.45398396 94.6248003 63.16455078 85.28979492 C59.12127491 80.12436033 54.98171171 75.0402332 50.83374023 69.95874023 C47.36106518 65.69689091 43.94173694 61.39868899 40.5625 57.0625 C35.94370987 51.13958089 31.19440999 45.33184327 26.38500977 39.56274414 C20.77826533 32.81070683 15.43124044 25.91248783 10 19 C9.67 105.79 9.34 192.58 9 282 C6.03 282 3.06 282 0 282 C0 188.94 0 95.88 0 0 Z " fill="#000000" transform="translate(1468,99)"/>
<path d="M0 0 C0.98554367 0.00273422 0.98554367 0.00273422 1.99099731 0.00552368 C12.09682452 0.05264604 21.44046189 0.5815531 31.1875 3.3125 C32.97800781 3.78816406 32.97800781 3.78816406 34.8046875 4.2734375 C61.1309188 12.12121469 84.76869008 29.45313768 101.1875 51.3125 C101.78949219 52.11042969 102.39148437 52.90835938 103.01171875 53.73046875 C126.74022351 86.41715058 137.24643579 127.46143951 131 167.5 C126.13566837 195.10493424 114.32190049 220.00089618 96.1875 241.3125 C95.74293457 241.84214355 95.29836914 242.37178711 94.84033203 242.91748047 C74.49204007 266.95329629 43.6047425 283.47759177 12.1875 286.3125 C-22.67684846 288.62091193 -54.78029614 278.81475107 -81.4453125 256.06640625 C-83.9466845 253.85953829 -86.386595 251.60184743 -88.8125 249.3125 C-89.54984375 248.63960937 -90.2871875 247.96671875 -91.046875 247.2734375 C-118.25435752 221.5131615 -131.78579354 182.37119725 -132.80859375 145.546875 C-133.24455357 103.40937653 -116.41638495 65.5663516 -87.375 35.5625 C-63.52113552 12.31423433 -33.21623209 -0.14668288 0 0 Z M-85.77954102 46.85791016 C-110.84819173 72.99233906 -123.94420616 109.4526027 -123.83984375 145.3671875 C-123.11603576 179.49905064 -109.87557805 211.47942027 -87.8125 237.3125 C-87.02875 238.34375 -86.245 239.375 -85.4375 240.4375 C-66.67391521 260.98809287 -38.01144947 275.86956172 -9.99853516 277.47363281 C3.38526039 277.66763356 16.1865019 277.78043367 29.1875 274.3125 C30.70730469 273.91224609 30.70730469 273.91224609 32.2578125 273.50390625 C51.34477859 267.77781642 67.54151047 256.47987759 82.1875 243.3125 C82.86683594 242.71824219 83.54617188 242.12398437 84.24609375 241.51171875 C107.4854325 219.94427488 121.27163926 184.1761012 123.40844727 153.09912109 C124.92244384 111.11223526 111.42812101 74.86422158 83.05859375 43.99609375 C65.15501261 25.513811 40.00549303 11.79077637 14.1875 9.3125 C13.05441406 9.17972656 11.92132812 9.04695313 10.75390625 8.91015625 C-26.35461429 5.35508808 -59.93687824 20.78479422 -85.77954102 46.85791016 Z " fill="#000000" transform="translate(976.8125,96.6875)"/>
<path d="M0 0 C1.23556641 0.01740234 1.23556641 0.01740234 2.49609375 0.03515625 C3.32238281 0.04417969 4.14867187 0.05320312 5 0.0625 C5.63808594 0.07410156 6.27617187 0.08570312 6.93359375 0.09765625 C16.17094457 20.95091071 25.39662043 41.80879627 34.49609375 62.72265625 C40.26563323 75.98243656 46.05497108 89.23323559 51.87109375 102.47265625 C52.4307634 103.74668304 52.4307634 103.74668304 53.0017395 105.04644775 C54.89000942 109.34457817 56.77866018 113.64254111 58.66748047 117.94042969 C62.80026196 127.34490442 66.92835517 136.75143843 71.05731201 146.15759277 C72.18140803 148.7183559 73.30553528 151.2791053 74.4296875 153.83984375 C74.80073608 154.68506592 75.17178467 155.53028809 75.55407715 156.40112305 C77.81312533 161.5466647 80.07326546 166.69172525 82.33422852 171.83642578 C92.91145842 195.9043468 103.45450636 219.98682706 113.93359375 244.09765625 C114.49611847 245.39153259 114.49611847 245.39153259 115.07000732 246.71154785 C117.35368438 251.96478614 119.63498816 257.2190447 121.9130249 262.47473145 C122.63122914 264.13115447 123.35001361 265.78732603 124.06939697 267.4432373 C125.05845767 269.72050793 126.04518704 271.99877382 127.03125 274.27734375 C127.32720566 274.95757599 127.62316132 275.63780823 127.92808533 276.33865356 C129.93359375 280.98330438 129.93359375 280.98330438 129.93359375 282.09765625 C126.63359375 282.09765625 123.33359375 282.09765625 119.93359375 282.09765625 C115.12271448 272.80605609 110.98524974 263.24752095 106.80859375 253.66015625 C105.21351109 250.00725622 103.61669702 246.35511464 102.01953125 242.703125 C101.40286591 241.29223602 101.40286591 241.29223602 100.77374268 239.85284424 C97.74000278 232.91935655 94.67535851 226.00000898 91.59765625 219.0859375 C90.72538797 217.12363219 89.85315448 215.16131141 88.98095703 213.19897461 C87.71576611 210.35285213 86.44913859 207.50741853 85.17767334 204.66409302 C83.99846036 202.02656531 82.82489432 199.3865886 81.65234375 196.74609375 C81.3041861 195.97175491 80.95602844 195.19741608 80.59732056 194.39961243 C80.27452118 193.67009872 79.9517218 192.94058502 79.61914062 192.18896484 C79.34034058 191.56428314 79.06154053 190.93960144 78.77429199 190.29598999 C77.62805024 187.29869346 76.81517281 184.18318295 75.93359375 181.09765625 C27.09359375 181.09765625 -21.74640625 181.09765625 -72.06640625 181.09765625 C-72.39640625 182.74765625 -72.72640625 184.39765625 -73.06640625 186.09765625 C-74.00886519 188.43934108 -74.98600674 190.72507877 -76.03125 193.01953125 C-76.33611832 193.70022675 -76.64098663 194.38092224 -76.95509338 195.08224487 C-77.61840542 196.56194655 -78.28401778 198.04061871 -78.95166016 199.51837158 C-80.76968508 203.54280807 -82.57084538 207.57480032 -84.375 211.60546875 C-84.9447908 212.87642899 -84.9447908 212.87642899 -85.52609253 214.17306519 C-89.92743944 223.99895121 -94.24744869 233.86034916 -98.56640625 243.72265625 C-101.39583432 250.18271017 -104.22807712 256.64150775 -107.06640625 263.09765625 C-107.43926758 263.94678589 -107.81212891 264.79591553 -108.19628906 265.67077637 C-109.30668406 268.19701981 -110.42042915 270.72175938 -111.53515625 273.24609375 C-111.8755896 274.02159576 -112.21602295 274.79709778 -112.56677246 275.59609985 C-114.95177567 280.98302567 -114.95177567 280.98302567 -116.06640625 282.09765625 C-117.58568663 282.16945589 -119.10808107 282.18157632 -120.62890625 282.16015625 C-121.45519531 282.15113281 -122.28148437 282.14210938 -123.1328125 282.1328125 C-123.77089844 282.12121094 -124.40898438 282.10960937 -125.06640625 282.09765625 C-124.43595494 278.3037671 -123.33217477 275.07855699 -121.79296875 271.55859375 C-121.06557495 269.88639771 -121.06557495 269.88639771 -120.32348633 268.18041992 C-119.77960336 266.94443544 -119.23557115 265.70851663 -118.69140625 264.47265625 C-118.1151456 263.15419819 -117.53922837 261.83558999 -116.96362305 260.5168457 C-115.00658682 256.03994158 -113.03752321 251.56837557 -111.06640625 247.09765625 C-110.70963806 246.28830627 -110.35286987 245.4789563 -109.98529053 244.64508057 C-106.47311785 236.67959011 -102.95526181 228.71661609 -99.43237305 220.75585938 C-93.93652327 208.33672647 -88.4601207 195.90925333 -83.00390625 183.47265625 C-82.6348819 182.63157318 -82.26585754 181.79049011 -81.88565063 180.92391968 C-80.02355284 176.67955978 -78.16182997 172.43503557 -76.30029297 168.19042969 C-72.93318403 160.51338447 -69.5626543 152.83784102 -66.19241333 145.16217041 C-64.31694046 140.89072592 -62.44168421 136.61918632 -60.56640625 132.34765625 C-59.81640729 130.63932246 -59.06640729 128.93098913 -58.31640625 127.22265625 C-57.75953125 125.95421875 -57.75953125 125.95421875 -57.19140625 124.66015625 C-56.06640625 122.09765625 -54.94140625 119.53515625 -53.81640625 116.97265625 C-53.44516129 116.12704132 -53.07391632 115.28142639 -52.69142151 114.41018677 C-51.94137481 112.70174988 -51.19132394 110.99331482 -50.44126892 109.28488159 C-48.56694936 105.01564756 -46.69270195 100.74638188 -44.81860352 96.47705078 C-41.43564993 88.77063061 -38.05218653 81.06443647 -34.66600037 73.35943604 C-33.15361275 69.9180409 -31.64155983 66.47649879 -30.12960815 63.03491211 C-29.3835542 61.33678838 -28.63740061 59.63870842 -27.8911438 57.94067383 C-23.63899667 48.26418947 -19.40229194 38.58123677 -15.19140625 28.88671875 C-14.79530655 27.97538177 -14.39920685 27.0640448 -13.99110413 26.12509155 C-12.08536658 21.74013165 -10.18199958 17.35417303 -8.28295898 12.96630859 C-7.60540092 11.40588326 -6.92775306 9.84549691 -6.25 8.28515625 C-5.78575623 7.20870346 -5.78575623 7.20870346 -5.31213379 6.11050415 C-2.70852337 0.12800205 -2.70852337 0.12800205 0 0 Z M1.93359375 14.09765625 C-2.50932523 22.78218351 -6.68064479 31.52048651 -10.54623413 40.4803772 C-11.41955661 42.50436645 -12.29772661 44.52619752 -13.17700195 46.54760742 C-14.13425226 48.74840989 -15.09122316 50.94932939 -16.04685974 53.15083313 C-19.55200526 61.22516206 -23.08798557 69.28589229 -26.62747192 77.34521484 C-27.76111378 79.92656811 -28.89411508 82.50820192 -30.02709961 85.08984375 C-34.00963015 94.16100774 -38.0044436 103.22662323 -42.015625 112.28515625 C-42.42503326 113.20976151 -42.83444153 114.13436676 -43.2562561 115.08699036 C-43.66411346 116.0080809 -44.07197083 116.92917145 -44.4921875 117.87817383 C-50.80462103 132.13457808 -57.10624316 146.39425402 -63.25390625 160.72265625 C-63.75325684 161.88450439 -64.25260742 163.04635254 -64.76708984 164.2434082 C-66.97234115 168.5254262 -66.97234115 168.5254262 -68.06640625 173.09765625 C-21.86640625 173.09765625 24.33359375 173.09765625 71.93359375 173.09765625 C63.4285846 152.68202934 63.4285846 152.68202934 54.63189697 132.39932251 C52.6955287 128.02132434 50.76820877 123.63934027 48.83984375 119.2578125 C48.43823029 118.34571518 48.03661682 117.43361786 47.62283325 116.49388123 C43.48895806 107.09959551 39.39277132 97.68903318 35.30334473 88.27532959 C34.06191972 85.41781198 32.819607 82.56068163 31.57714844 79.70361328 C27.61119982 70.58086509 23.6535787 61.45462086 19.71279907 52.32096863 C17.86059211 48.02944192 16.00490734 43.73942343 14.14886475 39.44955444 C13.25993439 37.39223062 12.37274911 35.33415185 11.48736572 33.27529907 C10.26274325 30.42777381 9.03240024 27.58278582 7.80078125 24.73828125 C7.43716492 23.88854233 7.07354858 23.03880341 6.69891357 22.16331482 C6.36240784 21.38915726 6.0259021 20.61499969 5.67919922 19.81738281 C5.24340042 18.80638519 5.24340042 18.80638519 4.79879761 17.77496338 C3.93990818 15.90112681 3.93990818 15.90112681 1.93359375 14.09765625 Z " fill="#000000" transform="translate(149.06640625,98.90234375)"/>
<path d="M0 0 C2.97 0 5.94 0 9 0 C9.00331015 0.76916339 9.00662029 1.53832678 9.01003075 2.33079815 C9.09163467 21.13996538 9.18384548 39.94905408 9.28752708 58.75811291 C9.3374193 67.85443163 9.38386257 76.95074238 9.421875 86.04711914 C9.4550574 93.9854927 9.49502819 101.92379977 9.54279006 109.86209947 C9.56779749 114.05629357 9.58965099 118.25044505 9.60334396 122.44469261 C9.67662381 144.04026308 9.80399732 165.5121889 14.25 186.75 C14.46760986 187.79945801 14.68521973 188.84891602 14.90942383 189.93017578 C21.00908082 218.17598011 34.19673203 243.58553297 58.875 259.75 C83.65369609 275.4051455 117.0558169 278.22489907 145.38964844 271.83618164 C157.83908186 268.70265978 168.67269324 263.72772335 179 256 C179.94746094 255.29875 180.89492187 254.5975 181.87109375 253.875 C207.73399442 233.78731016 217.62144083 201.68018593 221.69831181 170.44453144 C222.89602934 160.73961683 223.1665415 151.10681233 223.20532227 141.33911133 C223.21492187 139.79070792 223.2249331 138.24230701 223.23532104 136.69390869 C223.26215092 132.52322167 223.28327787 128.35252358 223.30332303 124.18179917 C223.32531923 119.81093262 223.35264066 115.4400993 223.37937927 111.06925964 C223.42912308 102.80709907 223.47412918 94.54491986 223.51740164 86.28272313 C223.56693138 76.87029142 223.62179071 67.45789308 223.67708123 58.04549372 C223.79061985 38.69702686 223.89751917 19.34852843 224 0 C226.97 0 229.94 0 233 0 C233.07051136 20.15157878 233.12319227 40.30313204 233.15543652 60.45480919 C233.17081517 69.81447889 233.19172929 79.17407134 233.22631836 88.53369141 C233.25649982 96.70462562 233.27564012 104.8755038 233.28226548 113.04649222 C233.28612983 117.36108642 233.29501599 121.67552055 233.31719017 125.99006271 C233.43528667 149.90753793 233.24668147 173.86621957 227.1875 197.1875 C226.93033203 198.21375488 226.67316406 199.24000977 226.40820312 200.29736328 C218.6752705 230.13312462 201.46070995 255.13818517 174.77880859 270.97900391 C146.92231899 286.96800192 109.85851004 288.02626123 79.2578125 279.78125 C61.33651654 274.50202029 47.95136833 265.28512452 35 252 C34.20851563 251.2059375 33.41703125 250.411875 32.6015625 249.59375 C4.81451141 220.15924529 -0.21711186 174.98347845 -0.11352539 136.45751953 C-0.11324247 134.95793662 -0.11340329 133.45835358 -0.1139679 131.95877075 C-0.1142518 127.93492225 -0.10842161 123.9111043 -0.10139394 119.88726282 C-0.09509193 115.66457943 -0.09455123 111.44189514 -0.09336853 107.21920776 C-0.09027523 99.24399151 -0.08208914 91.26878915 -0.07201904 83.29357898 C-0.06079535 74.2051583 -0.05533177 65.11673691 -0.05032361 56.02831101 C-0.0399046 37.3521995 -0.02234438 18.67610087 0 0 Z " fill="#000000" transform="translate(1162,99)"/>
<path d="M0 0 C1.00804687 0.84433594 2.01609375 1.68867187 3.0546875 2.55859375 C13.15801662 11.2920614 23.14574534 22.39211686 28 35 C27.67 35.99 27.34 36.98 27 38 C23.4375 39.1875 23.4375 39.1875 20 40 C19.5875 39.40574219 19.175 38.81148437 18.75 38.19921875 C17.52131972 36.43573344 16.28781809 34.67560225 15.05078125 32.91796875 C13.72529619 31.03199287 12.40947433 29.13917186 11.10546875 27.23828125 C-4.54603453 4.89265234 -28.1634575 -8.51450376 -54.75 -13.8125 C-71.71293493 -16.78922665 -90.34893793 -16.47261538 -107 -12 C-107.65468262 -11.82839355 -108.30936523 -11.65678711 -108.98388672 -11.47998047 C-127.96261522 -6.40538138 -147.25350807 3.66855097 -161 18 C-161.495 18.99 -161.495 18.99 -162 20 C-162.66 20 -163.32 20 -164 20 C-164.2371875 20.55429688 -164.474375 21.10859375 -164.71875 21.6796875 C-166.3027388 24.54825258 -168.30671208 26.68878462 -170.5 29.125 C-176.99026015 36.65093996 -181.53882428 45.16452834 -186 54 C-186.86625 55.71123047 -186.86625 55.71123047 -187.75 57.45703125 C-204.11193599 92.69484652 -203.45649421 132.6295463 -190.3671875 168.58203125 C-184.62773345 183.60887347 -176.16581361 196.61294801 -166 209 C-165.30519531 209.86109375 -164.61039063 210.7221875 -163.89453125 211.609375 C-149.57496394 228.4812104 -129.92448679 240.32102808 -109 247 C-108.02160156 247.31582031 -107.04320312 247.63164062 -106.03515625 247.95703125 C-76.15679323 256.46377416 -44.21309571 250.86729382 -17.01171875 236.765625 C-7.95422946 231.45565722 3.14196537 224.78705194 9 216 C9.66 216 10.32 216 11 216 C11.23976563 215.45988281 11.47953125 214.91976562 11.7265625 214.36328125 C13.32964638 211.38823295 15.30882887 208.86116663 17.375 206.1875 C20.61517103 201.95010438 23.52677812 197.73138099 26 193 C28.97 193.66 31.94 194.32 35 195 C28.03988162 218.11029597 6.17443933 235.2653056 -14.25 246.25 C-42.29657704 260.78986968 -77.22648039 266.39277808 -108 258 C-108.99902344 257.73316406 -109.99804688 257.46632813 -111.02734375 257.19140625 C-128.47934241 251.9206684 -144.08714918 242.62548382 -158 231 C-158.71929688 230.41605469 -159.43859375 229.83210937 -160.1796875 229.23046875 C-161.82849708 227.86970421 -163.4212546 226.44146319 -165 225 C-165 224.34 -165 223.68 -165 223 C-165.66 223 -166.32 223 -167 223 C-194.42633848 197.16909949 -208.78803753 156.36684172 -210.125 119.55859375 C-210.812783 79.02238295 -195.71377518 41.12358775 -167.84375 11.84765625 C-125.25361308 -31.55134032 -47.60972086 -39.89097865 0 0 Z " fill="#000000" transform="translate(779,122)"/>
<path d="M0 0 C1.63276735 1.42867143 3.25879886 2.86511439 4.875 4.3125 C5.5040625 4.81136719 6.133125 5.31023437 6.78125 5.82421875 C15.71674832 12.91169355 22.05805164 22.63767916 27.875 32.3125 C28.45507812 33.18132812 29.03515625 34.05015625 29.6328125 34.9453125 C30.04273438 35.72648437 30.45265625 36.50765625 30.875 37.3125 C30.545 38.3025 30.215 39.2925 29.875 40.3125 C28.02734375 41.04296875 28.02734375 41.04296875 25.8125 41.5 C25.07902344 41.65855469 24.34554687 41.81710938 23.58984375 41.98046875 C23.02394531 42.09003906 22.45804688 42.19960937 21.875 42.3125 C21.5346875 41.71824219 21.194375 41.12398437 20.84375 40.51171875 C14.97930929 30.48290126 8.61627412 21.05092247 -0.125 13.3125 C-1.0015625 12.53261719 -1.878125 11.75273437 -2.78125 10.94921875 C-17.98868362 -1.65178617 -35.87143204 -8.18628793 -55.125 -11.6875 C-56.07979248 -11.86563232 -57.03458496 -12.04376465 -58.01831055 -12.22729492 C-73.2882515 -14.48928618 -90.20997338 -13.67058803 -105.125 -9.6875 C-106.20910156 -9.42066406 -107.29320312 -9.15382813 -108.41015625 -8.87890625 C-137.72424768 -0.86472573 -162.8222982 20.39231774 -178.00292969 46.32421875 C-197.23971764 80.41133822 -202.49097192 120.02986773 -192.17529297 157.81420898 C-182.25544935 192.24479789 -160.38274422 221.66982052 -129.13867188 239.44238281 C-116.2680159 246.50677512 -102.81008985 251.6991568 -88.125 253.3125 C-86.93777344 253.4465625 -85.75054687 253.580625 -84.52734375 253.71875 C-52.85432153 256.50876597 -21.1646773 246.80103043 3.34375 226.51953125 C13.09002414 218.02162247 20.05929794 209.19628255 26.875 198.3125 C27.535 197.3225 28.195 196.3325 28.875 195.3125 C31.845 195.9725 34.815 196.6325 37.875 197.3125 C25.19022548 226.47598462 1.10106331 244.15162595 -27.76171875 255.77734375 C-59.52648802 267.27416343 -95.31889985 267.00998191 -126.05541992 252.66577148 C-140.58891724 245.58199533 -154.044926 236.13251045 -165.125 224.3125 C-165.125 223.6525 -165.125 222.9925 -165.125 222.3125 C-166.115 221.9825 -167.105 221.6525 -168.125 221.3125 C-169.93798778 219.30929711 -171.60282314 217.32048544 -173.25 215.1875 C-173.73500977 214.56294922 -174.22001953 213.93839844 -174.71972656 213.29492188 C-179.78849694 206.63614429 -184.06525982 199.61924134 -188.125 192.3125 C-188.72957031 191.25160156 -189.33414062 190.19070313 -189.95703125 189.09765625 C-198.33545165 173.49450314 -203.71611557 155.83165946 -206.125 138.3125 C-206.30675781 137.08015625 -206.48851562 135.8478125 -206.67578125 134.578125 C-211.28194647 96.56014287 -199.54292147 57.31524004 -176.48242188 27.03369141 C-157.84468724 3.40131205 -132.41456895 -13.17526804 -103.0625 -19.875 C-101.96446045 -20.12588379 -101.96446045 -20.12588379 -100.84423828 -20.38183594 C-67.12315225 -27.66841501 -27.31111072 -22.13205971 0 0 Z " fill="#000000" transform="translate(501.125,119.6875)"/>
<path d="M0 0 C57.75 0 115.5 0 175 0 C175 2.64 175 5.28 175 8 C156.19 8 137.38 8 118 8 C118 98.42 118 188.84 118 282 C115.03 282 112.06 282 109 282 C109 191.58 109 101.16 109 8 C73.03 8 37.06 8 0 8 C0 5.36 0 2.72 0 0 Z " fill="#000000" transform="translate(1745,99)"/>
</svg>
