<?xml version="1.0" encoding="UTF-8"?>
<svg version="1.1" viewBox="0 0 1920 480" xmlns="http://www.w3.org/2000/svg">
<path transform="translate(1468,99)" d="m0 0c8 0 8 0 10.293 1.8438 0.6252 0.87656 1.2504 1.7531 1.8945 2.6562 0.74895 1.0042 1.4979 2.0084 2.2695 3.043 0.40299 0.55478 0.80599 1.1096 1.2212 1.6812 2.4484 3.2895 5.0913 6.423 7.6968 9.5884 4.549 5.585 9.0273 11.221 13.46 16.898 3.5019 4.4738 7.0725 8.8882 10.665 13.29 4.0498 4.9624 8.0579 9.9517 12 15 6.0591 7.7544 12.277 15.377 18.5 23 6.681 8.1848 13.334 16.384 19.836 24.711 3.5015 4.4734 7.0718 8.8874 10.664 13.289 4.0498 4.9624 8.0579 9.9517 12 15 6.0591 7.7544 12.277 15.377 18.5 23 6.681 8.1848 13.334 16.384 19.836 24.711 4.0394 5.1606 8.1752 10.24 12.319 15.317 3.5786 4.3923 7.106 8.8204 10.595 13.284 3.8769 4.959 7.8142 9.8605 11.812 14.723 7.2865 8.8629 14.529 17.761 21.625 26.777 0.45746 0.58048 0.91491 1.161 1.3862 1.759 1.9038 2.4292 3.7131 4.8587 5.4263 7.4285l1-267h9v282c-10 0-10 0-12.559-1.6953-0.62004-0.8018-1.2401-1.6036-1.8789-2.4297-0.73605-0.91781-1.4721-1.8356-2.2305-2.7812-0.76957-1.0209-1.5391-2.0419-2.332-3.0938-0.84715-1.0754-1.6975-2.1482-2.5508-3.2188-1.8492-2.3275-3.6816-4.667-5.5039-7.0156-3.0544-3.9232-6.1796-7.7864-9.3203-11.641-0.54221-0.6658-1.0844-1.3316-1.6431-2.0176-1.6597-2.0366-3.3206-4.0722-4.9819-6.1074-6.681-8.1848-13.334-16.384-19.836-24.711-4.0429-5.1651-8.1822-10.249-12.33-15.33-3.4727-4.2618-6.892-8.5601-10.271-12.896-4.1019-5.2601-8.3083-10.425-12.562-15.562-4.713-5.6915-9.3445-11.433-13.887-17.262-3.4818-4.4592-7.0357-8.8556-10.613-13.238-4.1344-5.0654-8.2238-10.161-12.25-15.312-3.8769-4.959-7.8142-9.8605-11.812-14.723-7.5215-9.1488-14.984-18.34-22.273-27.675-4.0433-5.1654-8.1828-10.25-12.331-15.331-3.4727-4.2618-6.892-8.5601-10.271-12.896-4.6188-5.9229-9.3681-11.731-14.177-17.5-5.6067-6.752-10.954-13.65-16.385-20.563l-1 263h-9v-282z"/>
<path transform="translate(976.81 96.688)" d="m0 0c0.98554 0.0027342 0.98554 0.0027342 1.991 0.0055237 10.106 0.047122 19.449 0.57603 29.197 3.307 1.7905 0.47566 1.7905 0.47566 3.6172 0.96094 26.326 7.8478 49.964 25.18 66.383 47.039 0.60199 0.79793 1.204 1.5959 1.8242 2.418 23.729 32.687 34.235 73.731 27.988 113.77-4.8643 27.605-16.678 52.501-34.812 73.812-0.44457 0.52964-0.88913 1.0593-1.3472 1.605-20.348 24.036-51.236 40.56-82.653 43.395-34.864 2.3084-66.968-7.4977-93.633-30.246-2.5014-2.2069-4.9413-4.4646-7.3672-6.7539-0.73734-0.67289-1.4747-1.3458-2.2344-2.0391-27.207-25.76-40.739-64.902-41.762-101.73-0.43596-42.137 16.392-79.981 45.434-109.98 23.854-23.248 54.159-35.709 87.375-35.562zm-85.78 46.858c-25.069 26.134-38.165 62.595-38.06 98.509 0.72381 34.132 13.964 66.112 36.027 91.945l2.375 3.125c18.764 20.551 47.426 35.432 75.439 37.036 13.384 0.194 26.185 0.3068 39.186-3.1611 1.5198-0.40025 1.5198-0.40025 3.0703-0.80859 19.087-5.7261 35.284-17.024 49.93-30.191 0.67934-0.59426 1.3587-1.1885 2.0586-1.8008 23.239-21.567 37.026-57.336 39.162-88.413 1.514-41.987-11.98-78.235-40.35-109.1-17.904-18.482-43.053-32.205-68.871-34.684-1.1331-0.13277-2.2662-0.26555-3.4336-0.40234-37.109-3.5551-70.691 11.875-96.533 37.948z"/>
<path transform="translate(149.07 98.902)" d="m0 0c1.2356 0.017402 1.2356 0.017402 2.4961 0.035156 0.82629 0.0090234 1.6526 0.018047 2.5039 0.027344 0.63809 0.011602 1.2762 0.023203 1.9336 0.035156 9.2374 20.853 18.463 41.711 27.562 62.625 5.7695 13.26 11.559 26.511 17.375 39.75 0.55967 1.274 0.55967 1.274 1.1306 2.5738 1.8883 4.2981 3.7769 8.5961 5.6657 12.894 4.1328 9.4045 8.2609 18.811 12.39 28.217 1.1241 2.5608 2.2482 5.1215 3.3724 7.6823 0.37105 0.84522 0.7421 1.6904 1.1244 2.5613 2.259 5.1455 4.5192 10.291 6.7802 15.435 10.577 24.068 21.12 48.15 31.599 72.261 0.56252 1.2939 0.56252 1.2939 1.1364 2.6139 2.2837 5.2532 4.565 10.507 6.843 15.763 0.7182 1.6564 1.437 3.3126 2.1564 4.9685 0.98906 2.2773 1.9758 4.5555 2.9619 6.8341 0.29596 0.68023 0.59191 1.3605 0.89684 2.0613 2.0055 4.6447 2.0055 4.6447 2.0055 5.759h-10c-4.8109-9.2916-8.9483-18.85-13.125-28.438-1.5951-3.6529-3.1919-7.305-4.7891-10.957-0.61667-1.4109-0.61667-1.4109-1.2458-2.8503-3.0337-6.9335-6.0984-13.853-9.1761-20.767-0.87227-1.9623-1.7445-3.9246-2.6167-5.887-1.2652-2.8461-2.5318-5.6916-3.8033-8.5349-1.1792-2.6375-2.3528-5.2775-3.5253-7.918-0.34816-0.77434-0.69632-1.5487-1.055-2.3465-0.3228-0.72951-0.6456-1.459-0.97818-2.2106-0.2788-0.62468-0.5576-1.2494-0.84485-1.893-1.1462-2.9973-1.9591-6.1128-2.8407-9.1983h-148l-1 5c-0.94246 2.3417-1.9196 4.6274-2.9648 6.9219-0.30487 0.6807-0.60974 1.3614-0.92384 2.0627-0.66331 1.4797-1.3289 2.9584-1.9966 4.4361-1.818 4.0244-3.6192 8.0564-5.4233 12.087-0.56979 1.271-0.56979 1.271-1.1511 2.5676-4.4013 9.8259-8.7214 19.687-13.04 29.55-2.8294 6.4601-5.6617 12.919-8.5 19.375-0.37286 0.84913-0.74572 1.6983-1.1299 2.5731-1.1104 2.5262-2.2241 5.051-3.3389 7.5753-0.34043 0.7755-0.68087 1.551-1.0316 2.35-2.385 5.3869-2.385 5.3869-3.4996 6.5016-1.5193 0.0718-3.0417 0.08392-4.5625 0.0625-0.82629-0.0090234-1.6526-0.018047-2.5039-0.027344-0.63809-0.011602-1.2762-0.023203-1.9336-0.035156 0.63045-3.7939 1.7342-7.0191 3.2734-10.539 0.72739-1.6722 0.72739-1.6722 1.4695-3.3782 0.54388-1.236 1.0879-2.4719 1.6321-3.7078 0.57626-1.3185 1.1522-2.6371 1.7278-3.9558 1.957-4.4769 3.9261-8.9485 5.8972-13.419 0.35677-0.80935 0.71354-1.6187 1.0811-2.4526 3.5122-7.9655 7.03-15.928 10.553-23.889 5.4958-12.419 10.972-24.847 16.428-37.283 0.36902-0.84108 0.73805-1.6822 1.1183-2.5487 1.8621-4.2444 3.7238-8.4889 5.5854-12.733 3.3671-7.677 6.7376-15.353 10.108-23.028 1.8755-4.2714 3.7507-8.543 5.626-12.815 0.75-1.7083 1.5-3.4167 2.25-5.125l4.5-10.25c0.37124-0.84561 0.74249-1.6912 1.125-2.5625 0.75005-1.7084 1.5001-3.4169 2.2502-5.1253 1.8743-4.2692 3.7486-8.5385 5.6227-12.808 3.383-7.7064 6.7664-15.413 10.153-23.118 1.5124-3.4414 3.0244-6.8829 4.5364-10.325 0.74605-1.6981 1.4922-3.3962 2.2385-5.0942 4.2521-9.6765 8.4889-19.359 12.7-29.054 0.3961-0.91134 0.7922-1.8227 1.2003-2.7616 1.9057-4.385 3.8091-8.7709 5.7081-13.159 0.67756-1.5604 1.3552-3.1208 2.033-4.6812 0.46424-1.0765 0.46424-1.0765 0.93787-2.1747 2.6036-5.9825 2.6036-5.9825 5.3121-6.1105zm1.9336 14.098c-4.4429 8.6845-8.6142 17.423-12.48 26.383-0.87332 2.024-1.7515 4.0458-2.6308 6.0672-0.95725 2.2008-1.9142 4.4017-2.8699 6.6032-3.5051 8.0743-7.0411 16.135-10.581 24.194-1.1336 2.5814-2.2666 5.163-3.3996 7.7446-3.9825 9.0712-7.9773 18.137-11.989 27.195-0.40941 0.92461-0.81882 1.8492-1.2406 2.8018-0.40786 0.92109-0.81571 1.8422-1.2359 2.7912-6.3124 14.256-12.614 28.516-18.762 42.844-0.49935 1.1618-0.9987 2.3237-1.5132 3.5208-2.2053 4.282-2.2053 4.282-3.2993 8.8542h140c-8.505-20.416-8.505-20.416-17.302-40.698-1.9364-4.378-3.8637-8.76-5.7921-13.142-0.40161-0.9121-0.80323-1.8242-1.217-2.7639-4.1339-9.3943-8.2301-18.805-12.319-28.219-1.2414-2.8575-2.4837-5.7146-3.7262-8.5717-3.9659-9.1227-7.9236-18.249-11.864-27.383-1.8522-4.2915-3.7079-8.5815-5.5639-12.871-0.88893-2.0573-1.7761-4.1154-2.6615-6.1743-1.2246-2.8475-2.455-5.6925-3.6866-8.537-0.36362-0.84974-0.72723-1.6995-1.1019-2.575-0.33651-0.77416-0.67301-1.5483-1.0197-2.3459-0.4358-1.011-0.4358-1.011-0.8804-2.0424-0.85889-1.8738-0.85889-1.8738-2.8652-3.6773z"/>
<path transform="translate(1162,99)" d="m0 0h9c0.0033102 0.76916 0.0066203 1.5383 0.010031 2.3308 0.081604 18.809 0.17381 37.618 0.2775 56.427 0.049892 9.0963 0.096335 18.193 0.13435 27.289 0.033182 7.9384 0.073153 15.877 0.12092 23.815 0.025007 4.1942 0.046861 8.3883 0.060554 12.583 0.07328 21.596 0.20065 43.067 4.6467 64.305 0.21761 1.0495 0.43522 2.0989 0.65942 3.1802 6.0997 28.246 19.287 53.655 43.966 69.82 24.779 15.655 58.181 18.475 86.515 12.086 12.449-3.1335 23.283-8.1085 33.61-15.836 0.94746-0.70125 1.8949-1.4025 2.8711-2.125 25.863-20.088 35.75-52.195 39.827-83.43 1.1977-9.7049 1.4682-19.338 1.507-29.105 0.0095996-1.5484 0.019611-3.0968 0.029999-4.6452 0.02683-4.1707 0.047957-8.3414 0.068002-12.512 0.021996-4.3709 0.049318-8.7417 0.076056-13.113 0.049744-8.2622 0.09475-16.524 0.13802-24.787 0.04953-9.4124 0.10439-18.825 0.15968-28.237 0.11354-19.348 0.22044-38.697 0.32292-58.045h9c0.070511 20.152 0.12319 40.303 0.15544 60.455 0.015379 9.3597 0.036293 18.719 0.070882 28.079 0.030181 8.1709 0.049322 16.342 0.055947 24.513 0.0038644 4.3146 0.012751 8.629 0.034925 12.944 0.1181 23.917-0.070509 47.876-6.1297 71.197-0.25717 1.0263-0.51434 2.0525-0.7793 3.1099-7.7329 29.836-24.947 54.841-51.629 70.682-27.856 15.989-64.92 17.047-95.521 8.8022-17.921-5.2792-31.306-14.496-44.258-27.781-0.79148-0.79406-1.583-1.5881-2.3984-2.4062-27.787-29.435-32.819-74.61-32.715-113.14 2.8292e-4 -1.4996 1.221e-4 -2.9992-4.4251e-4 -4.4987-2.839e-4 -4.0238 0.0055463-8.0477 0.012574-12.072 0.006302-4.2227 0.0068427-8.4454 0.0080254-12.668 0.0030933-7.9752 0.011279-15.95 0.021349-23.926 0.011224-9.0884 0.016687-18.177 0.021695-27.265 0.010419-18.676 0.027979-37.352 0.050324-56.028z"/>
<path transform="translate(779,122)" d="m0 0c1.008 0.84434 2.0161 1.6887 3.0547 2.5586 10.103 8.7335 20.091 19.834 24.945 32.441l-1 3c-3.5625 1.1875-3.5625 1.1875-7 2-0.4125-0.59426-0.825-1.1885-1.25-1.8008-1.2287-1.7635-2.4622-3.5236-3.6992-5.2812-1.3255-1.886-2.6413-3.7788-3.9453-5.6797-15.652-22.346-39.269-35.753-65.855-41.051-16.963-2.9767-35.599-2.6601-52.25 1.8125-0.65468 0.17161-1.3094 0.34321-1.9839 0.52002-18.979 5.0746-38.27 15.149-52.016 29.48l-1 2h-2c-0.23719 0.5543-0.47438 1.1086-0.71875 1.6797-1.584 2.8686-3.588 5.0091-5.7812 7.4453-6.4903 7.5259-11.039 16.04-15.5 24.875-0.86625 1.7112-0.86625 1.7112-1.75 3.457-16.362 35.238-15.706 75.173-2.6172 111.12 5.7395 15.027 14.201 28.031 24.367 40.418 0.6948 0.86109 1.3896 1.7222 2.1055 2.6094 14.32 16.872 33.97 28.712 54.895 35.391 0.9784 0.31582 1.9568 0.63164 2.9648 0.95703 29.878 8.5067 61.822 2.9103 89.023-11.191 9.0575-5.31 20.154-11.979 26.012-20.766h2c0.23977-0.54012 0.47953-1.0802 0.72656-1.6367 1.6031-2.975 3.5823-5.5021 5.6484-8.1758 3.2402-4.2374 6.1518-8.4561 8.625-13.188 2.97 0.66 5.94 1.32 9 2-6.9601 23.11-28.826 40.265-49.25 51.25-28.047 14.54-62.976 20.143-93.75 11.75-0.99902-0.26684-1.998-0.53367-3.0273-0.80859-17.452-5.2707-33.06-14.566-46.973-26.191-0.7193-0.58395-1.4386-1.1679-2.1797-1.7695-1.6488-1.3608-3.2416-2.789-4.8203-4.2305v-2h-2c-27.426-25.831-41.788-66.633-43.125-103.44-0.68778-40.536 14.411-78.435 42.281-107.71 42.59-43.399 120.23-51.739 167.84-11.848z"/>
<path transform="translate(501.12 119.69)" d="m0 0c1.6328 1.4287 3.2588 2.8651 4.875 4.3125 0.62906 0.49887 1.2581 0.99773 1.9062 1.5117 8.9355 7.0875 15.277 16.813 21.094 26.488 0.58008 0.86883 1.1602 1.7377 1.7578 2.6328 0.40992 0.78117 0.81984 1.5623 1.2422 2.3672l-1 3c-1.8477 0.73047-1.8477 0.73047-4.0625 1.1875-0.73348 0.15855-1.467 0.31711-2.2227 0.48047-0.5659 0.10957-1.1318 0.21914-1.7148 0.33203-0.34031-0.59426-0.68062-1.1885-1.0312-1.8008-5.8644-10.029-12.227-19.461-20.969-27.199-0.87656-0.77988-1.7531-1.5598-2.6562-2.3633-15.207-12.601-33.09-19.136-52.344-22.637-0.95479-0.17813-1.9096-0.35626-2.8933-0.53979-15.27-2.262-32.192-1.4433-47.107 2.5398-1.0841 0.26684-2.1682 0.53367-3.2852 0.80859-29.314 8.0142-54.412 29.271-69.593 55.203-19.237 34.087-24.488 73.706-14.172 111.49 9.9198 34.431 31.793 63.856 63.037 81.628 12.871 7.0644 26.329 12.257 41.014 13.87 1.1872 0.13406 2.3745 0.26812 3.5977 0.40625 31.673 2.79 63.363-6.9177 87.871-27.199 9.7463-8.4979 16.716-17.323 23.531-28.207l2-3c2.97 0.66 5.94 1.32 9 2-12.685 29.163-36.774 46.839-65.637 58.465-31.765 11.497-67.557 11.233-98.294-3.1116-14.533-7.0838-27.99-16.533-39.07-28.353v-2c-0.99-0.33-1.98-0.66-3-1-1.813-2.0032-3.4778-3.992-5.125-6.125-0.48501-0.62455-0.97002-1.2491-1.4697-1.8926-5.0688-6.6588-9.3455-13.676-13.405-20.982-0.60457-1.0609-1.2091-2.1218-1.832-3.2148-8.3784-15.603-13.759-33.266-16.168-50.785-0.18176-1.2323-0.36352-2.4647-0.55078-3.7344-4.6062-38.018 7.1329-77.263 30.193-107.54 18.638-23.632 44.068-40.209 73.42-46.909 1.098-0.25088 1.098-0.25088 2.2183-0.50684 33.721-7.2866 73.533-1.7502 100.84 20.382z"/>
<path transform="translate(1745,99)" d="m0 0h175v8h-57v274h-9v-274h-109v-8z"/>
</svg>
